HIERARCHY
ROOT Hips
{
	OFFSET 0.00000 0.00000 0.00000
	CHANNELS 6 Xposition Yposition Zposition Zrotation Yrotation Xrotation 
	JOINT LHipJoint
	{
		OFFSET 0 0 0
		CHANNELS 3 Zrotation Yrotation Xrotation
		JOINT LeftUpLeg
		{
			OFFSET 1.37959 -1.78713 0.86582
			CHANNELS 3 Zrotation Yrotation Xrotation
			JOINT LeftLeg
			{
				OFFSET 2.54611 -6.99539 0.00000
				CHANNELS 3 Zrotation Yrotation Xrotation
				JOINT LeftFoot
				{
					OFFSET 2.59951 -7.14211 0.00000
					CHANNELS 3 Zrotation Yrotation Xrotation
					JOINT LeftToeBase
					{
						OFFSET 0.18493 -0.50810 1.96120
						CHANNELS 3 Zrotation Yrotation Xrotation
						End Site
						{
							OFFSET 0.00000 -0.00000 1.02054
						}
					}
				}
			}
		}
	}
	JOINT RHipJoint
	{
		OFFSET 0 0 0
		CHANNELS 3 Zrotation Yrotation Xrotation
		JOINT RightUpLeg
		{
			OFFSET -1.33564 -1.78713 0.86582
			CHANNELS 3 Zrotation Yrotation Xrotation
			JOINT RightLeg
			{
				OFFSET -2.52705 -6.94302 0.00000
				CHANNELS 3 Zrotation Yrotation Xrotation
				JOINT RightFoot
				{
					OFFSET -2.55964 -7.03257 0.00000
					CHANNELS 3 Zrotation Yrotation Xrotation
					JOINT RightToeBase
					{
						OFFSET -0.25804 -0.70896 2.12109
						CHANNELS 3 Zrotation Yrotation Xrotation
						End Site
						{
							OFFSET -0.00000 -0.00000 1.11821
						}
					}
				}
			}
		}
	}
	JOINT LowerBack
	{
		OFFSET 0 0 0
		CHANNELS 3 Zrotation Yrotation Xrotation
		JOINT Spine
		{
			OFFSET -0.02031 2.24248 -0.18900
			CHANNELS 3 Zrotation Yrotation Xrotation
			JOINT Spine1
			{
				OFFSET 0.08342 2.24689 -0.03799
				CHANNELS 3 Zrotation Yrotation Xrotation
				JOINT Neck
				{
					OFFSET 0 0 0
					CHANNELS 3 Zrotation Yrotation Xrotation
					JOINT Neck1
					{
						OFFSET -0.11607 1.55844 0.24628
						CHANNELS 3 Zrotation Yrotation Xrotation
						JOINT Head
						{
							OFFSET 0.06877 1.60174 -0.17013
							CHANNELS 3 Zrotation Yrotation Xrotation
							End Site
							{
								OFFSET 0.03358 1.61266 -0.08543
							}
						}
					}
				}
				JOINT LeftShoulder
				{
					OFFSET 0 0 0
					CHANNELS 3 Zrotation Yrotation Xrotation
					JOINT LeftArm
					{
						OFFSET 3.47537 0.55866 -0.72348
						CHANNELS 3 Zrotation Yrotation Xrotation
						JOINT LeftForeArm
						{
							OFFSET 5.38154 -0.00000 0.00000
							CHANNELS 3 Zrotation Yrotation Xrotation
							JOINT LeftHand
							{
								OFFSET 3.33312 -0.00000 0.00000
								CHANNELS 3 Zrotation Yrotation Xrotation
								JOINT LeftFingerBase
								{
									OFFSET 0 0 0
									CHANNELS 3 Zrotation Yrotation Xrotation
									JOINT LeftHandIndex1
									{
										OFFSET 0.71079 -0.00000 0.00000
										CHANNELS 3 Zrotation Yrotation Xrotation
										End Site
										{
											OFFSET 0.57306 -0.00000 0.00000
										}
									}
								}
								JOINT LThumb
								{
									OFFSET 0 0 0
									CHANNELS 3 Zrotation Yrotation Xrotation
									End Site
									{
										OFFSET 0.58181 -0.00000 0.58181
									}
								}
							}
						}
					}
				}
				JOINT RightShoulder
				{
					OFFSET 0 0 0
					CHANNELS 3 Zrotation Yrotation Xrotation
					JOINT RightArm
					{
						OFFSET -3.27844 0.90739 -0.35708
						CHANNELS 3 Zrotation Yrotation Xrotation
						JOINT RightForeArm
						{
							OFFSET -5.16954 -0.00000 0.00000
							CHANNELS 3 Zrotation Yrotation Xrotation
							JOINT RightHand
							{
								OFFSET -3.38287 -0.00000 0.00000
								CHANNELS 3 Zrotation Yrotation Xrotation
								JOINT RightFingerBase
								{
									OFFSET 0 0 0
									CHANNELS 3 Zrotation Yrotation Xrotation
									JOINT RightHandIndex1
									{
										OFFSET -0.81797 -0.00000 0.00000
										CHANNELS 3 Zrotation Yrotation Xrotation
										End Site
										{
											OFFSET -0.65947 -0.00000 0.00000
										}
									}
								}
								JOINT RThumb
								{
									OFFSET 0 0 0
									CHANNELS 3 Zrotation Yrotation Xrotation
									End Site
									{
										OFFSET -0.66953 -0.00000 0.66953
									}
								}
							}
						}
					}
				}
			}
		}
	}
}
MOTION
Frames: 13
Frame Time: 0.033333
6.9508 18.0011 6.6802 181.1850 7.5313 -176.5780 0.0000 0.0000 0.0000 -22.4884 -1.6564 -6.5913 1.3997 7.4842 21.1581 0.6485 -1.6049 -14.7487 0.2950 -3.4923 -9.6525 0.0000 0.0000 0.0000 12.3651 2.9338 -1.1495 -0.4929 -4.5015 12.4920 -0.2217 -4.5401 -11.7382 -0.0343 1.1958 -3.2878 -3.1345 -0.1665 1.3087 -0.2785 -0.2491 0.4623 1.4750 -0.1203 -0.2473 -19.3848 -10.7656 -6.0045 7.1090 -12.7829 -2.2570 4.5387 -6.0136 1.9177 0.0000 0.0000 0.0000 -87.0895 1.5196 6.2011 16.8655 -26.6801 -4.0267 -0.0000 -0.0000 8.8228 -1.4234 37.5496 -0.8676 -7.1250 0.0000 -0.0000 -42.9340 62.2273 -19.9065 0.0000 0.0000 0.0000 88.5858 1.5381 21.2007 -14.9517 24.0788 -3.2062 0.0000 -0.0000 -10.4119 -13.3541 21.8220 -5.0429 7.1250 -0.0000 -0.0000 9.7260 -7.8725 8.4277
6.9510 18.0021 6.6819 181.2350 7.3844 -176.5200 0.0000 0.0000 0.0000 -22.4152 -1.5873 -6.6697 1.3952 7.4726 21.1233 0.6428 -1.7334 -14.6523 0.3936 -4.0285 -11.1569 0.0000 0.0000 0.0000 12.4326 2.9194 -1.1159 -0.4845 -4.4634 12.3841 -0.2266 -4.6072 -11.8818 -0.0403 1.2962 -3.5643 -2.9947 -0.0767 1.3518 -0.3434 -0.1305 0.4111 1.3285 -0.0592 -0.3303 -18.5931 -10.6968 -6.0680 6.8010 -12.7203 -2.5501 4.3485 -5.9751 1.7637 -0.0000 0.0000 0.0000 -87.0177 1.7165 6.2628 16.7285 -26.4985 -3.9655 -0.0000 -0.0000 9.3446 -3.2311 38.1337 -1.9965 -7.1250 0.0000 -0.0000 -45.3899 62.1833 -21.2559 -0.0000 0.0000 0.0000 88.9065 1.4834 20.3077 -14.7423 23.7859 -3.1213 0.0000 -0.0000 -9.6469 -13.3937 22.8090 -5.2739 7.1250 -0.0000 -0.0000 9.7393 -6.8793 8.6314
6.9374 18.0122 6.6760 181.4520 6.7348 -176.2780 0.0000 0.0000 0.0000 -22.1396 -2.4935 -6.6411 1.4043 7.4958 21.1929 0.6558 -1.9289 -14.7613 0.1270 -2.2975 -6.3286 0.0000 0.0000 0.0000 12.6836 2.6339 -0.9729 -0.4436 -4.2734 11.8472 -0.2060 -5.0325 -11.9004 -0.0097 0.6374 -1.7515 -2.0093 0.4844 1.0595 -1.1248 0.6701 0.9725 -0.0301 0.3426 0.3928 -16.2368 -11.5708 -7.9919 6.5377 -13.7188 -2.0124 3.7397 -6.4693 2.1725 0.0000 -0.0000 0.0000 -85.2392 0.1449 8.8729 16.3300 -25.9660 -3.7893 -0.0000 -0.0000 9.2607 -3.2123 38.3041 -1.9924 -7.1250 0.0000 -0.0000 -45.5965 62.3098 -21.5102 0.0000 -0.0000 0.0000 90.5538 2.6345 17.9209 -14.7652 23.8180 -3.1305 0.0000 -0.0000 -9.3862 -14.1638 22.1722 -5.4405 7.1250 -0.0000 -0.0000 9.2305 -7.4251 8.0683
6.9434 18.0175 6.6947 181.1790 6.4211 -176.1020 0.0000 0.0000 0.0000 -22.2972 -2.1896 -7.0166 1.3755 7.4219 20.9713 0.6208 -2.5657 -14.2296 0.0812 -1.8384 -5.0594 0.0000 0.0000 0.0000 12.4273 2.4373 -1.3089 -0.4534 -4.3198 11.9782 -0.2018 -5.0965 -11.8859 -0.0262 1.0442 -2.8706 -2.4736 0.3070 1.1909 -1.0069 0.4156 0.7373 0.3506 0.2151 0.0780 -16.4599 -11.2812 -7.8904 6.7440 -13.3624 -1.7697 3.8619 -6.3100 2.2237 0.0000 -0.0000 0.0000 -85.4866 0.4774 8.8520 16.0744 -25.6215 -3.6781 -0.0000 -0.0000 9.2932 -2.3983 38.3590 -1.4889 -7.1250 0.0000 -0.0000 -44.9082 62.5621 -21.3767 0.0000 -0.0000 0.0000 90.1190 1.9099 18.6569 -15.0450 24.2088 -3.2444 0.0000 -0.0000 -10.8041 -13.7256 21.7163 -5.1640 7.1250 -0.0000 -0.0000 9.4879 -7.9355 8.2034
6.9545 18.0245 6.7202 181.1420 5.7345 -175.7460 0.0000 0.0000 0.0000 -22.1633 -2.2253 -7.5079 1.3732 7.4158 20.9533 0.5832 -3.3425 -13.6746 0.1428 -2.4358 -6.7116 0.0000 0.0000 0.0000 12.4942 2.1308 -1.6485 -0.4425 -4.2682 11.8325 -0.2279 -5.2330 -12.4590 -0.0421 1.3248 -3.6430 -2.6215 0.1384 1.1690 -0.9631 0.1851 0.6178 0.4807 0.1003 -0.0270 -16.3707 -11.1995 -8.9681 6.6751 -13.1359 -0.2673 3.7494 -6.2467 2.8119 -0.0000 -0.0000 0.0000 -85.4656 0.5156 8.9163 15.9142 -25.4042 -3.6091 -0.0000 -0.0000 9.6776 -1.9786 38.1225 -1.2218 -7.1250 0.0000 -0.0000 -44.2010 62.5017 -20.9050 -0.0000 -0.0000 0.0000 90.1435 1.8899 18.1377 -15.1191 24.3118 -3.2748 0.0000 -0.0000 -10.2335 -13.4262 21.4987 -4.9998 7.1250 -0.0000 -0.0000 9.6691 -8.1883 8.3158
6.9292 18.0187 6.6801 181.0380 6.6140 -176.2200 0.0000 0.0000 0.0000 -22.6107 -2.4806 -6.5888 1.3589 7.3789 20.8427 0.6227 -2.0202 -14.3524 0.0788 -1.8104 -4.9819 0.0000 0.0000 0.0000 12.1611 2.3376 -1.1111 -0.4348 -4.2315 11.7288 -0.2059 -4.9141 -11.7912 -0.0408 1.3029 -3.5828 -2.4507 0.3669 1.0935 -0.9846 0.5024 0.8464 0.3609 0.2565 0.2423 -16.1442 -11.0175 -9.2290 6.2373 -12.8730 0.3252 3.5821 -6.1497 2.9599 -0.0000 0.0000 0.0000 -85.6498 0.5439 8.3882 15.7922 -25.2381 -3.5569 -0.0000 -0.0000 10.0312 -2.1850 38.1933 -1.3514 -7.1250 0.0000 -0.0000 -44.4886 62.4989 -21.0677 -0.0000 0.0000 0.0000 89.9735 1.8583 17.9928 -15.1612 24.3702 -3.2922 0.0000 -0.0000 -10.6122 -12.6998 22.2639 -4.8802 7.1250 -0.0000 -0.0000 10.1524 -7.5057 8.8835
6.9195 18.0080 6.6778 180.5720 6.6271 -176.3900 0.0000 0.0000 0.0000 -23.1655 -2.3810 -6.3282 1.3152 7.2640 20.4998 0.5947 -1.9327 -14.0337 0.0755 -1.7729 -4.8786 0.0000 0.0000 0.0000 11.5891 2.3198 -1.3644 -0.4870 -4.4745 12.4156 -0.2444 -4.6249 -12.2002 -0.0349 1.2060 -3.3158 -2.7862 0.3200 1.0914 -1.1124 0.4499 0.9869 0.4188 0.2302 0.3877 -15.4997 -10.7825 -9.2767 5.5738 -12.5868 0.3881 3.3171 -6.0264 2.8727 -0.0000 0.0000 0.0000 -85.6937 0.2822 7.7482 15.7597 -25.1938 -3.5431 -0.0000 -0.0000 10.2799 -2.2948 38.5821 -1.4316 -7.1250 0.0000 -0.0000 -45.1098 62.7492 -21.6904 -0.0000 0.0000 0.0000 90.1151 1.9713 17.4227 -15.1209 24.3142 -3.2755 0.0000 -0.0000 -10.2453 -12.7384 22.6654 -4.9787 7.1250 -0.0000 -0.0000 10.1424 -7.1004 8.9560
6.9119 18.0136 6.6979 180.7050 6.5655 -176.1120 0.0000 0.0000 0.0000 -23.0118 -2.5708 -6.6919 1.3243 7.2880 20.5713 0.5989 -1.9567 -14.0791 0.1299 -2.3236 -6.4009 0.0000 0.0000 0.0000 11.7214 2.4272 -1.6666 -0.4784 -4.4357 12.3058 -0.2436 -4.6628 -12.2194 -0.0635 1.6260 -4.4730 -2.5591 0.3050 1.0095 -1.0327 0.4261 0.8997 0.3738 0.2178 0.3455 -15.1912 -10.4836 -9.3060 4.9584 -12.2138 1.1657 3.1007 -5.8957 3.0205 0.0000 0.0000 0.0000 -85.7363 0.3297 7.7029 15.8961 -25.3795 -3.6013 -0.0000 -0.0000 9.9732 -1.9344 38.3281 -1.1999 -7.1250 0.0000 -0.0000 -44.4313 62.6620 -21.2037 0.0000 0.0000 0.0000 89.9907 2.0866 17.1921 -15.0018 24.1486 -3.2267 0.0000 -0.0000 -10.9696 -12.5112 22.9817 -4.9516 7.1250 -0.0000 -0.0000 10.2955 -6.8114 9.1546
6.9070 18.0131 6.6978 181.3060 6.6481 -175.9770 0.0000 0.0000 0.0000 -22.3516 -2.3970 -7.0319 1.3691 7.4053 20.9217 0.6247 -2.1839 -14.3443 0.1548 -2.5352 -6.9874 0.0000 0.0000 0.0000 12.3751 2.4175 -1.3707 -0.4245 -4.1817 11.5884 -0.1867 -4.9472 -11.4771 -0.0269 1.0585 -2.9099 -1.8315 0.3534 0.7188 -0.8405 0.4948 0.9641 0.1651 0.2495 0.5763 -15.6729 -10.1805 -9.6844 5.5258 -11.7753 2.2294 3.3351 -5.7117 3.4298 0.0000 -0.0000 0.0000 -85.7597 0.1007 7.4644 15.8363 -25.2981 -3.5757 -0.0000 -0.0000 10.1428 -2.1307 38.3053 -1.3211 -7.1250 0.0000 -0.0000 -44.5857 62.5939 -21.2226 0.0000 -0.0000 0.0000 89.9670 2.0474 17.2219 -15.0253 24.1813 -3.2363 0.0000 -0.0000 -10.4154 -12.9048 21.9557 -4.8963 7.1250 -0.0000 -0.0000 10.0133 -7.7902 8.7010
6.8942 18.0165 6.6987 181.7080 6.8624 -176.0270 0.0000 0.0000 0.0000 -21.9708 -2.6200 -6.9933 1.4122 7.5161 21.2538 0.6449 -1.9782 -14.6235 0.0816 -1.8429 -5.0717 0.0000 0.0000 0.0000 12.7982 2.5905 -1.0422 -0.3931 -4.0256 11.1487 -0.1806 -5.1076 -11.5177 -0.0593 1.5708 -4.3209 -1.2441 0.4824 0.6665 -0.7358 0.6654 1.0014 -0.0563 0.3360 0.6460 -15.1579 -9.8864 -9.3504 4.6410 -11.4609 2.9168 3.0213 -5.6195 3.4754 -0.0000 0.0000 0.0000 -85.7145 0.0078 7.6633 15.7380 -25.1641 -3.5338 -0.0000 -0.0000 10.2403 -1.7078 37.7980 -1.0469 -7.1250 0.0000 -0.0000 -43.5223 62.3360 -20.3478 -0.0000 0.0000 0.0000 90.0167 1.9908 17.1093 -15.0440 24.2074 -3.2440 0.0000 -0.0000 -9.9906 -13.1143 21.8641 -4.9585 7.1250 -0.0000 -0.0000 9.8784 -7.8579 8.5668
6.9061 18.0099 6.7075 181.8360 8.1355 -176.1180 0.0000 0.0000 0.0000 -21.9016 -1.5531 -7.1927 1.4178 7.5304 21.2967 0.6317 -1.4877 -14.5781 0.2094 -2.9461 -8.1287 0.0000 0.0000 0.0000 12.8886 3.5750 -1.1202 -0.4216 -4.1674 11.5482 -0.1937 -4.7848 -11.4561 -0.0534 1.4917 -4.1027 -1.9108 0.0796 0.4178 0.2815 0.1095 0.7113 1.3591 0.0468 0.4900 -17.8042 -8.4884 -8.4052 5.1829 -9.4909 4.1382 3.7621 -4.7302 3.6715 0.0000 0.0000 0.0000 -87.6898 1.2977 5.4795 16.1395 -25.7095 -3.7063 -0.0000 -0.0000 10.2280 -1.7638 37.9684 -1.0854 -7.1250 0.0000 -0.0000 -43.7968 62.4460 -20.6162 0.0000 0.0000 0.0000 88.1652 1.4297 19.7941 -14.8094 23.8799 -3.1484 0.0000 -0.0000 -10.1310 -13.1613 22.4327 -5.0991 7.1250 -0.0000 -0.0000 9.8696 -7.2835 8.6716
6.8873 18.0042 6.7061 181.3270 7.0708 -176.1270 0.0000 0.0000 0.0000 -22.4293 -2.3499 -6.9769 1.3921 7.4646 21.0994 0.6045 -1.7341 -14.1950 0.1295 -2.3200 -6.3909 0.0000 0.0000 0.0000 12.3477 3.1032 -1.3561 -0.4602 -4.3518 12.0685 -0.2332 -4.9283 -12.2749 -0.0405 1.2987 -3.5712 -2.5437 -0.4041 0.3727 0.5165 -0.5410 0.4873 1.9554 -0.2789 0.3190 -18.2399 -7.9251 -8.0846 4.8280 -8.7150 5.5874 3.7728 -4.4368 3.9892 -0.0000 0.0000 0.0000 -88.3486 1.5286 4.9581 16.2307 -25.8325 -3.7459 -0.0000 -0.0000 10.4250 -2.4200 38.7131 -1.5141 -7.1250 0.0000 -0.0000 -45.4041 62.8096 -21.9272 -0.0000 0.0000 0.0000 87.5661 0.8257 20.4999 -14.9752 24.1116 -3.2158 0.0000 -0.0000 -10.5634 -13.1837 21.6818 -4.9462 7.1250 -0.0000 -0.0000 9.8284 -8.0326 8.4878
6.8861 18.0078 6.6984 181.0410 7.8302 -176.3430 0.0000 0.0000 0.0000 -22.7935 -1.8135 -6.7653 1.3623 7.3876 20.8690 0.6410 -1.7177 -14.6351 0.0433 -1.3434 -3.6943 0.0000 0.0000 0.0000 11.9894 3.5534 -1.3372 -0.4811 -4.4480 12.3405 -0.2286 -4.7105 -12.0062 -0.0305 1.1272 -3.0989 -2.9183 -0.2800 0.2455 0.5574 -0.3683 0.6701 2.2065 -0.1993 0.5714 -18.4469 -7.3996 -8.2634 4.8588 -7.9493 6.5505 3.8644 -4.1035 4.2433 0.0000 0.0000 0.0000 -88.5935 1.3453 4.7187 16.4858 -26.1749 -3.8577 -0.0000 -0.0000 10.1302 -1.9858 38.0805 -1.2251 -7.1250 0.0000 -0.0000 -44.1526 62.4694 -20.8438 0.0000 0.0000 0.0000 87.4381 0.8651 21.0580 -15.0439 24.2072 -3.2439 0.0000 -0.0000 -10.3274 -13.6928 21.7249 -5.1532 7.1250 -0.0000 -0.0000 9.5089 -7.9306 8.2230
